<svg xmlns="http://www.w3.org/2000/svg" width="28" height="39" viewBox="0 0 28 39">
  <path fill-rule="evenodd" d="M2.18357197,1.02173899 L2.18357197,1.0226377 C1.87169607,1.00955336 1.5744444,1.15543533 1.39399098,1.41013975 C1.21353755,1.66484416 1.17448014,1.99365205 1.2902439,2.2835426 C4.90584951,11.3225336 4.90579613,18.8230364 4.90579659,24.0289842 C4.90579705,30.6254886 10.2730593,35.9927517 16.8695641,35.9927517 C17.8058582,35.9927517 18.7159581,35.8808307 19.5908896,35.6764021 C19.6932424,37.5300448 19.63313,38.6952044 19.6331295,38.6952044 C19.6125803,39.0235107 19.7687413,39.3378411 20.0427883,39.5197904 C20.3168352,39.7017397 20.6671339,39.7236655 20.9617301,39.5773085 C21.2563263,39.4309515 21.4504639,39.1385469 21.4710131,38.8102406 C21.4710131,38.8102406 21.5632138,37.3753707 21.416191,35.0931325 C25.7643289,33.2996805 28.8333316,29.0166131 28.8333316,24.0289842 C28.8333316,14.3966191 22.039414,8.55951347 15.4405984,5.26010518 C8.84178269,1.96069628 2.27524158,1.03072617 2.27524158,1.03072617 C2.24485419,1.02620236 2.21425936,1.02320288 2.18357197,1.02173899 Z M3.57029779,3.18765532 C5.37225514,3.51725527 9.57151775,4.38363911 14.6173706,6.9065607 C20.9026123,10.049187 26.992752,15.2555407 26.992752,24.0289842 C26.992752,28.0626908 24.6485599,31.5359055 21.2445353,33.1644784 C20.659987,27.8258648 18.7823372,19.7047665 12.9484467,13.2874766 C12.762686,13.0775859 12.491406,12.9637807 12.2114956,12.9783167 C11.8546194,12.9971668 11.5409168,13.2208988 11.4068643,13.552178 C11.2728118,13.8834571 11.3426463,14.2623878 11.5859861,14.524116 C17.214786,20.7158093 18.9367568,28.7542688 19.4461957,33.821443 C18.623688,34.0363812 17.7605873,34.1521721 16.8695641,34.1521721 C11.2677821,34.1521721 6.74637667,29.6307579 6.74637621,24.0289842 C6.74637575,19.123332 6.70535889,11.8463161 3.57029779,3.18765532 Z" transform="translate(-1 -1)"/>
</svg>
