<svg xmlns="http://www.w3.org/2000/svg" width="40" height="40" viewBox="0 0 40 40">
  <g fill-rule="evenodd" transform="translate(-1)">
    <path d="M24.0245997,7.00518519 C23.1769077,7.09259259 22.3442262,7.36340741 21.6529479,7.94844444 C15.7670193,12.9297778 9.39722783,24.9528889 1.45031161,35.7437037 C1.09468006,36.2265185 0.994897173,36.7973333 1.03469122,37.3437037 C1.07448586,37.8902222 1.2551189,38.441037 1.67120074,38.8685926 C2.09754018,39.3068148 2.65905446,39.509037 3.2203311,39.5659259 C3.78160774,39.6222222 4.36789286,39.5362963 4.87409315,39.2013333 C14.990567,32.5131852 23.1870833,27.0026667 31.9678899,19.3779259 C33.0435893,18.4438519 33.6017664,17.0167407 33.624558,15.6539259 C33.6587247,13.5985185 32.6921488,11.6136296 31.4214792,10.1244444 C30.1760521,8.66474074 28.4019554,7.54977778 26.4863512,7.16725926 C25.735994,7.01748148 24.8722917,6.91851852 24.0245997,7.00518519 L24.0245997,7.00518519 Z M24.2193318,8.50696296 C24.8566473,8.44325926 25.5541696,8.49214815 26.1928006,8.61955556 C27.7245179,8.92533333 29.2572068,9.87659259 30.2879702,11.0847407 C31.3696815,12.3525926 32.1624182,14.069037 32.1364628,15.6305185 C32.1205699,16.5811852 31.6642083,17.6767407 30.9884211,18.2635556 C22.2855952,25.8207407 14.1627768,31.2837037 4.05157173,37.9684444 C3.92756429,38.0499259 3.64988408,38.1182222 3.37146577,38.0899259 C3.09304747,38.0617778 2.84091771,37.9411852 2.7407692,37.8382222 C2.6500058,37.7448889 2.53607098,37.4986667 2.51697351,37.2364444 C2.49787679,36.9742222 2.57549732,36.7220741 2.65066994,36.6201481 C10.6820275,25.7146667 17.2475643,13.6216296 22.6178857,9.07674074 C23.0059229,8.7482963 23.5820152,8.57096296 24.2193321,8.50666667 L24.2193318,8.50696296 Z"/>
    <path d="M32.0957723,0.0115111478 C31.7709896,0.015472225 31.4862835,0.228657262 31.3924152,0.538222222 L28.7446518,8.90918519 C28.6535311,9.16452083 28.7097099,9.44901236 28.8911396,9.65100455 C29.0725693,9.85299674 29.3502982,9.94025659 29.6153251,9.87853699 C29.8803521,9.81681738 30.0903854,9.61596724 30.1629926,9.35481481 L32.810756,0.983851852 C32.8857993,0.756776623 32.8461678,0.507604893 32.7043285,0.314719556 C32.5624891,0.121834218 32.3358748,0.0089418968 32.0957723,0.0115111478 L32.0957723,0.0115111478 Z"/>
    <path d="M37.7516979,2.88192593 C37.583895,2.89091468 37.4240888,2.95618471 37.2982932,3.06711111 L29.9479167,9.36340741 C29.7403799,9.53431439 29.641808,9.80352926 29.6901867,10.0673075 C29.7385653,10.3310857 29.9263419,10.5482483 30.1811549,10.6351094 C30.435968,10.7219706 30.718038,10.6649703 30.9186667,10.4860741 L38.2690432,4.18977778 C38.5146672,3.98511357 38.6011802,3.64693342 38.4838149,3.35023311 C38.3664495,3.0535328 38.0715427,2.86489222 37.7516979,2.88192593 L37.7516979,2.88192593 Z"/>
    <path d="M39.9024598 7.92251852C39.8357447 7.92205509 39.7692699 7.93052608 39.7048229 7.9477037L31.3749762 10.0397037C30.9760902 10.1395817 30.7340578 10.5424727 30.8343817 10.9395859 30.9347056 11.3366991 31.3393952 11.5776558 31.7382813 11.4777778L40.0681265 9.38577778C40.4394764 9.30368034 40.6888418 8.95597104 40.6462568 8.5796463 40.6036718 8.20332157 40.2828493 7.91956264 39.9024598 7.9217649L39.9024598 7.92251852zM20.3363333 10.7088889C20.0334675 10.7112674 19.7622691 10.8961594 19.6505518 11.1764266 19.5388344 11.4566939 19.608892 11.7764075 19.8277068 11.9848889L22.9666577 15.0521481C23.1550298 15.2434375 23.4324584 15.3185826 23.6922124 15.2486739 23.9519664 15.1787651 24.1535759 14.9746944 24.2194787 14.7149709 24.2853815 14.4552475 24.2053098 14.1803362 24.0100685 13.996L20.8711176 10.9259259C20.7294743 10.7848553 20.5366745 10.7066093 20.3363333 10.7088889L20.3363333 10.7088889zM20.1910104 20.1881481C19.9155243 20.2039619 19.6714481 20.3702479 19.5568844 20.6201702 19.4423208 20.8700925 19.4760831 21.1626094 19.6446012 21.3801481L22.5626622 25.272C22.7168912 25.4964743 22.9822672 25.6187688 23.2539738 25.5905806 23.5256804 25.5623924 23.7600277 25.388254 23.8644549 25.1369455 23.968882 24.8856369 23.9265973 24.5975681 23.7543021 24.3865185L20.8362396 20.4948148C20.6878134 20.2896818 20.444558 20.1740665 20.1910104 20.1881481L20.1910104 20.1881481zM11.3380068 22.5637037C11.021146 22.5821041 10.7508878 22.7985701 10.6649864 23.1027663 10.579085 23.4069624 10.6964519 23.7319184 10.9572637 23.912L14.0962143 26.1573333C14.3108881 26.3272908 14.6020684 26.3659006 14.8539411 26.2578059 15.1058138 26.1497112 15.2775366 25.9124402 15.3008084 25.6403651 15.3240801 25.3682899 15.1951273 25.1055289 14.9652396 24.9565926L11.8262881 22.7082963C11.6857643 22.6041967 11.5128583 22.552785 11.3380068 22.5631111L11.3380068 22.5637037zM9.64936756 29.6700741C9.37321051 29.675608 9.12285365 29.8329726 8.99909417 30.0788107 8.87533469 30.3246489 8.89853757 30.6185071 9.05936101 30.8420741L10.9311058 33.5272593C11.0827167 33.7449009 11.339447 33.8654768 11.6045752 33.8435608 11.8697035 33.8216448 12.1029434 33.660567 12.2164234 33.4210124 12.3299034 33.1814579 12.3063801 32.8998269 12.1547158 32.6822222L10.2829705 29.997037C10.1414678 29.7877539 9.90271232 29.6645471 9.64936756 29.6700741L9.64936756 29.6700741z"/>
  </g>
</svg>
