<svg xmlns="http://www.w3.org/2000/svg" width="40" height="40" viewBox="0 0 40 40">
  <path d="M20,39.6306087 C9.15831419,39.6306087 0.369391304,30.8416858 0.369391304,20 C0.369391304,9.15831419 9.15831419,0.369391304 20,0.369391304 C30.8416858,0.369391304 39.6306087,9.15831419 39.6306087,20 C39.6184988,30.8366658 30.8366658,39.6184988 20,39.6306087 Z M20,2.10852174 C10.1188094,2.10852174 2.10852174,10.1188094 2.10852174,20 C2.10852174,29.8811906 10.1188094,37.8914783 20,37.8914783 C29.8811906,37.8914783 37.8914783,29.8811906 37.8914783,20 C37.8801692,10.1234975 29.8765025,2.11983076 20,2.10852174 Z"/>
  <path d="M29.1321739,20.8695652 L20,20.8695652 C19.7693586,20.8695652 19.5481464,20.7780298 19.3850583,20.6149417 C19.2219702,20.4518536 19.1304348,20.2306414 19.1304348,20 L19.1304348,10.3715217 C19.1304348,9.89127413 19.5197524,9.50195652 20,9.50195652 C20.4802476,9.50195652 20.8695652,9.89127413 20.8695652,10.3715217 L20.8695652,19.1304348 L29.1321739,19.1304348 C29.6124215,19.1304348 30.0017391,19.5197524 30.0017391,20 C30.0017391,20.4802476 29.6124215,20.8695652 29.1321739,20.8695652 Z"/>
</svg>
