<svg xmlns="http://www.w3.org/2000/svg" width="46" height="40" viewBox="0 0 46 40">
  <path d="M23.3333333,10.8056556 C18.2628,10.8056556 14.1384556,14.93 14.1384556,19.9999889 C14.1384556,25.0699778 18.2628,29.1943222 23.3333333,29.1943222 C28.4027778,29.1943222 32.5271222,25.0699778 32.5271222,19.9999889 C32.5271222,14.93 28.4027778,10.8056556 23.3333333,10.8056556 Z M23.3333333,26.9721 C19.4889333,26.9721 16.3606778,23.8443889 16.3606778,19.9999889 C16.3606778,16.1555889 19.4889333,13.0278778 23.3333333,13.0278778 C27.1777333,13.0278778 30.3049,16.1555889 30.3049,19.9999889 C30.3049,23.8443889 27.1777333,26.9721 23.3333333,26.9721 Z"/>
  <path d="M31.6232667,4.73361111 C23.3864333,-3.95723333 8.76018889,0.702488889 6.9694,12.3882333 C6.59633333,14.8358778 7.30854444,17.4597333 4.76996667,19.4753667 C-2.8365,25.5139444 1.41775556,37.8499333 11.1729667,37.8499333 C15.8236222,37.8499333 17.0143,34.8044111 19.9208,37.1115444 C27.6106444,43.2248778 39.1216667,38.1637778 39.7081222,28.1477889 C39.7569556,27.1804444 40.2419778,26.3145667 41.0058667,25.8311667 C49.3721556,20.5344889 46.1088222,7.59134444 36.2999222,6.85275556 C36.1439111,6.81453333 33.7306333,6.95805556 31.6232667,4.73361111 Z M39.8166222,23.9539889 C38.4450889,24.8225889 37.5737889,26.3482 37.4848111,28.1103444 C37.0225444,35.9835556 27.7312,40.4776222 21.3031667,35.3721667 C19.4689111,33.9128889 16.9454111,33.6629111 14.8697889,34.7336 C6.19002222,39.2169111 -1.35196667,27.1715444 6.15234444,21.2158 C9.55605556,18.5118667 8.83593333,14.8802222 9.16557778,12.7240444 C10.6788889,2.85422222 23.0451667,-1.08643333 30.0108444,6.26245556 C32.6205667,9.01696667 36.0183,9.04003333 36.1328111,9.06844444 C43.7949556,9.64571111 46.3925444,19.7909222 39.8166222,23.9539889 Z"/>
  <path d="M23.3333333,14.9712333 C20.5599,14.9712333 18.3040333,17.2270889 18.3040333,19.9999889 C18.3040333,20.6136 18.801,21.1111 19.4151444,21.1111 C20.0292889,21.1111 20.5262556,20.6136 20.5262556,19.9999889 C20.5262556,18.4526778 21.7860222,17.1934556 23.3333333,17.1934556 C23.9474778,17.1934556 24.4444444,16.6959556 24.4444444,16.0823444 C24.4444444,15.4687333 23.9474778,14.9712333 23.3333333,14.9712333 Z"/>
</svg>
