<svg xmlns="http://www.w3.org/2000/svg" width="97" height="40" viewBox="0 0 97 40">
  <path d="M26.7723592,39.0739696 C17.135315,39.0739696 9.29514567,30.5068038 9.29514567,19.9767473 C9.29514567,9.44669089 17.1353149,0.879520889 26.7723592,0.879520889 C30.4442342,0.879520889 33.9576891,2.10944711 36.933492,4.43637856 C37.417433,4.81398278 37.5026109,5.51222489 37.1244642,5.99562333 C36.7463176,6.48010689 36.0475328,6.56419978 35.5652194,6.18659556 C32.9838392,4.16836633 29.9434747,3.10174311 26.7723592,3.10174311 C18.3609009,3.10174311 11.5173679,10.6717301 11.5173679,19.9767473 C11.5173679,29.2817646 18.3609009,36.8517473 26.7723592,36.8517473 C30.4051718,36.8517473 33.9245944,35.4145729 36.6822984,32.8049809 C37.1288046,32.3845164 37.831387,32.4029627 38.253479,32.8483837 C38.6750284,33.2943472 38.6554972,33.9974722 38.2100762,34.4195642 C35.0378757,37.4208662 30.9759182,39.0739696 26.7723592,39.0739696 Z"/>
  <path d="M19.7118123 3.17119178L1.93403456 3.17119178C1.32042778 3.17119178.822923444 2.67368744.822923444 2.06008067.822923444 1.44647389 1.32042778.948969556 1.93403456.948969556L19.7118123.948969556C20.3254191.948969556 20.8229234 1.44647389 20.8229234 2.06008067 20.8229234 2.67368744 20.3254191 3.17119178 19.7118123 3.17119178zM19.7118123 11.018414L1.93403456 11.018414C1.32042778 11.018414.822923444 10.5209097.822923444 9.90730289.822923444 9.29369611 1.32042778 8.79619178 1.93403456 8.79619178L19.7118123 8.79619178C20.3254191 8.79619178 20.8229234 9.29369611 20.8229234 9.90730289 20.8229234 10.5209097 20.3254191 11.018414 19.7118123 11.018414z" transform="translate(0 15.556)"/>
  <g transform="translate(29)">
    <path d="M26.7723592,39.0739696 C17.135315,39.0739696 9.29514567,30.5068038 9.29514567,19.9767473 C9.29514567,9.44669089 17.1353149,0.879520889 26.7723592,0.879520889 C30.4442342,0.879520889 33.9576891,2.10944711 36.933492,4.43637856 C37.417433,4.81398278 37.5026109,5.51222489 37.1244642,5.99562333 C36.7463176,6.48010689 36.0475328,6.56419978 35.5652194,6.18659556 C32.9838392,4.16836633 29.9434747,3.10174311 26.7723592,3.10174311 C18.3609009,3.10174311 11.5173679,10.6717301 11.5173679,19.9767473 C11.5173679,29.2817646 18.3609009,36.8517473 26.7723592,36.8517473 C30.4051718,36.8517473 33.9245944,35.4145729 36.6822984,32.8049809 C37.1288046,32.3845164 37.831387,32.4029627 38.253479,32.8483837 C38.6750284,33.2943472 38.6554972,33.9974722 38.2100762,34.4195642 C35.0378757,37.4208662 30.9759182,39.0739696 26.7723592,39.0739696 Z"/>
    <path d="M19.7118123 3.17119178L1.93403456 3.17119178C1.32042778 3.17119178.822923444 2.67368744.822923444 2.06008067.822923444 1.44647389 1.32042778.948969556 1.93403456.948969556L19.7118123.948969556C20.3254191.948969556 20.8229234 1.44647389 20.8229234 2.06008067 20.8229234 2.67368744 20.3254191 3.17119178 19.7118123 3.17119178zM19.7118123 11.018414L1.93403456 11.018414C1.32042778 11.018414.822923444 10.5209097.822923444 9.90730289.822923444 9.29369611 1.32042778 8.79619178 1.93403456 8.79619178L19.7118123 8.79619178C20.3254191 8.79619178 20.8229234 9.29369611 20.8229234 9.90730289 20.8229234 10.5209097 20.3254191 11.018414 19.7118123 11.018414z" transform="translate(0 15.556)"/>
  </g>
  <g transform="translate(58)">
    <path d="M26.7723592,39.0739696 C17.135315,39.0739696 9.29514567,30.5068038 9.29514567,19.9767473 C9.29514567,9.44669089 17.1353149,0.879520889 26.7723592,0.879520889 C30.4442342,0.879520889 33.9576891,2.10944711 36.933492,4.43637856 C37.417433,4.81398278 37.5026109,5.51222489 37.1244642,5.99562333 C36.7463176,6.48010689 36.0475328,6.56419978 35.5652194,6.18659556 C32.9838392,4.16836633 29.9434747,3.10174311 26.7723592,3.10174311 C18.3609009,3.10174311 11.5173679,10.6717301 11.5173679,19.9767473 C11.5173679,29.2817646 18.3609009,36.8517473 26.7723592,36.8517473 C30.4051718,36.8517473 33.9245944,35.4145729 36.6822984,32.8049809 C37.1288046,32.3845164 37.831387,32.4029627 38.253479,32.8483837 C38.6750284,33.2943472 38.6554972,33.9974722 38.2100762,34.4195642 C35.0378757,37.4208662 30.9759182,39.0739696 26.7723592,39.0739696 Z"/>
    <path d="M19.7118123 3.17119178L1.93403456 3.17119178C1.32042778 3.17119178.822923444 2.67368744.822923444 2.06008067.822923444 1.44647389 1.32042778.948969556 1.93403456.948969556L19.7118123.948969556C20.3254191.948969556 20.8229234 1.44647389 20.8229234 2.06008067 20.8229234 2.67368744 20.3254191 3.17119178 19.7118123 3.17119178zM19.7118123 11.018414L1.93403456 11.018414C1.32042778 11.018414.822923444 10.5209097.822923444 9.90730289.822923444 9.29369611 1.32042778 8.79619178 1.93403456 8.79619178L19.7118123 8.79619178C20.3254191 8.79619178 20.8229234 9.29369611 20.8229234 9.90730289 20.8229234 10.5209097 20.3254191 11.018414 19.7118123 11.018414z" transform="translate(0 15.556)"/>
  </g>
</svg>
