<svg xmlns="http://www.w3.org/2000/svg" width="67" height="40" viewBox="0 0 67 40">
  <g fill="none">
    <path fill="#000" d="M6.66666667 0C5.93066667 0 5.33333333.597333333 5.33333333 1.33333333L5.33333333 33.3333333C5.33333333 34.0706667 5.93066667 34.6666667 6.66666667 34.6666667L60 34.6666667C60.7373333 34.6666667 61.3333333 34.0706667 61.3333333 33.3333333L61.3333333 1.33333333C61.3333333.597333333 60.7373333 0 60 0L6.66666667 0zM58.6666667 32L8 32 8 2.66666667 58.6666667 2.66666667 58.6666667 32zM65.3333333 37.3333333L1.33333333 37.3333333C.597333333 37.3333333 0 37.9293333 0 38.6666667 0 39.404.597333333 40 1.33333333 40L65.3333333 40C66.0706667 40 66.6666667 39.404 66.6666667 38.6666667 66.6666667 37.9293333 66.0706667 37.3333333 65.3333333 37.3333333z"/>
    <g fill="#231F20" transform="translate(27 12)">
      <circle cx="10.5" cy="1.5" r="1.5"/>
      <circle cx="1.5" cy="1.5" r="1.5"/>
      <path d="M6,14 C3.84682126,14.0061885 1.78109518,13.1325819 0.265182669,11.5746821 C-0.0883942229,11.2144517 -0.0883942229,10.630403 0.265182669,10.2701727 C0.61875956,9.90994242 1.19202097,9.90994242 1.54559786,10.2701727 C4.03951291,12.6919589 7.96048709,12.6919589 10.4544021,10.2701727 C10.807979,9.90994242 11.3812404,9.90994242 11.7348173,10.2701727 C12.0883942,10.630403 12.0883942,11.2144517 11.7348173,11.5746821 C10.2189048,13.1325819 8.15317874,14.0061885 6,14 Z"/>
    </g>
  </g>
</svg>
