<svg xmlns="http://www.w3.org/2000/svg" width="40" height="40" viewBox="0 0 40 40">
  <path d="M18.5,12.4166667 C17.3333333,13.75 16.125,16.1666667 15.5,18.5833333 C15.375,19.125 15.6666667,19.6666667 16.2083333,19.8333333 C16.2916667,19.875 16.375,19.875 16.4583333,19.875 C16.9166667,19.875 17.3333333,19.5833333 17.4166667,19.125 C18.0416667,16.7083333 19.1666667,14.6666667 19.9583333,13.7916667 C20.3333333,13.375 20.2916667,12.75 19.875,12.375 C19.5416667,11.9583333 18.9166667,12 18.5,12.4166667 Z"/>
  <path d="M20,0.208333333 C9.08333333,0.208333333 0.208333333,9.08333333 0.208333333,20 C0.208333333,30.9166667 9.08333333,39.7916667 20,39.7916667 C30.9166667,39.7916667 39.7916667,30.9166667 39.7916667,20 C39.7916667,9.08333333 30.9166667,0.208333333 20,0.208333333 Z M2.25,20 C2.25,10.2083333 10.2083333,2.25 20,2.25 C24.5416667,2.25 28.6666667,3.95833333 31.7916667,6.79166667 L26.3333333,12.2083333 C24.7083333,9.375 22.5416667,7.29166667 20,7.29166667 C14.7083333,7.29166667 10.875,16.2916667 10.875,22.375 C10.875,24.0416667 11.1666667,25.5416667 11.6666667,26.875 L6.75,31.7916667 C3.95833333,28.6666667 2.25,24.5416667 2.25,20 Z M27.125,22.4166667 C27.125,27.25 24.2083333,30.6666667 20,30.6666667 C17.4583333,30.6666667 15.375,29.4166667 14.125,27.3333333 L25.75,15.7083333 C26.5833333,17.875 27.125,20.2916667 27.125,22.4166667 Z M13.2916667,25.2916667 C13.0416667,24.4166667 12.9166667,23.4583333 12.9166667,22.4166667 C12.9166667,16.8333333 16.4166667,9.33333333 20.0416667,9.33333333 C21.8333333,9.33333333 23.5833333,11.1666667 24.9166667,13.7083333 L13.2916667,25.2916667 Z M20,37.75 C15.4583333,37.75 11.3333333,36.0416667 8.20833333,33.2083333 L12.6666667,28.75 C14.2916667,31.1666667 16.875,32.625 20.0416667,32.625 C25.4166667,32.625 29.1666667,28.4166667 29.1666667,22.375 C29.1666667,19.8333333 28.5,16.7916667 27.3333333,14.0833333 L33.2916667,8.125 C36.0833333,11.25 37.8333333,15.4166667 37.8333333,19.9166667 C37.75,29.7916667 29.7916667,37.75 20,37.75 Z"/>
</svg>
