<svg xmlns="http://www.w3.org/2000/svg" width="42" height="40" viewBox="0 0 42 40">
  <path d="M33.2067228 26.2397204L27.8849712 20.260074C26.1513158 18.3120888 23.6610814 17.1946957 21.0526316 17.1946957 18.4446957 17.1946957 15.9539474 18.3120887 14.219778 20.260074L8.94068674 26.1955181C7.11759874 28.0191201 6.36101979 30.6126645 6.91714642 33.1332237 7.48715053 35.7185444 9.32565789 37.7549342 11.9608347 38.7201892 14.6057772 39.688528 17.6033101 38.9340049 19.5934417 36.7937912 20.3551604 35.9755345 21.7501028 35.9755345 22.5118216 36.7937912 23.9257813 38.3151727 25.8480675 39.1375412 27.7924548 39.1375412 28.5839844 39.1375412 29.3785979 39.0008224 30.1439145 38.7212172 32.7796053 37.7549342 34.6181127 35.7185444 35.1881168 33.1332237 35.7442434 30.6126644 34.9876644 28.0191201 33.2067228 26.2397204zM33.1321957 32.6798931C32.7199835 34.5497533 31.3666735 36.0310444 29.4197162 36.7444489 27.5719572 37.4208469 25.4646381 36.8780838 24.0537623 35.3608141 23.28125 34.530222 22.1875 34.0532483 21.0526316 34.0532483 19.9177632 34.0532483 18.8240132 34.530222 18.0515008 35.3608141 16.6401111 36.8770559 14.5338199 37.4218749 12.6850329 36.7434211 10.7385897 36.0310444 9.38527968 34.5497533 8.97306747 32.6798931 8.57216284 30.8645147 9.116982 28.9967105 10.4713199 27.6398026L15.7925576 21.6601562C17.1273643 20.1603619 19.0445107 19.2999588 21.0526316 19.2999588 23.0607524 19.2999588 24.9778988 20.1603618 26.3121916 21.6601562L31.6760896 27.6840048C32.9882813 28.9967105 33.5331003 30.8645148 33.1321957 32.6798931zM12.3643093 13.1640625C13.2211143 13.8599918 14.1822575 14.2218339 15.1690996 14.2218339 15.3089022 14.2218339 15.4497328 14.2146382 15.5905634 14.1992187 18.4328742 13.9021381 20.3618421 10.7473273 19.9814967 7.01685853 19.7671669 4.91159537 18.8461143 3.05509863 17.4537418 1.92331411 16.4761514 1.12870063 15.3608142.762746632 14.2285157.888157895 11.3856908 1.18523853 9.45672295 4.34004937 9.83706832 8.07051811 10.051398 10.1757813 10.9724506 12.032278 12.3643093 13.1640625zM14.4469573 2.98211347C14.5132607 2.97491779 14.5780222 2.97183389 14.6422698 2.97183389 15.2672698 2.97183389 15.7874178 3.28125 16.1256168 3.55674347 17.0728824 4.32668589 17.7312912 5.70004116 17.8875412 7.23067442 18.1393915 9.70394737 16.9870477 11.9366777 15.3721217 12.1052632 14.6551193 12.1844161 14.0655839 11.8349096 13.6929482 11.5306333 12.7456826 10.7606908 12.0872739 9.38733558 11.9310239 7.85670232 11.6791735 5.38342926 12.8315173 3.15069905 14.4469573 2.98211347zM1.07833063 16.7608964C1.99732737 18.5587994 3.46062916 19.8869244 5.09303042 20.4070724 5.57565789 20.5602385 6.05263158 20.6373356 6.51624179 20.6373356 7.16437095 20.6373356 7.78525905 20.4872534 8.35526316 20.1891448 10.7889597 18.9155018 11.4180716 15.41838 9.78772611 12.2286185 8.86872937 10.4307156 7.40594158 9.10259053 5.77354021 8.58244253 4.61657074 8.21443253 3.48684211 8.28947368 2.51079358 8.80037011.0760690526 10.0729852-.553042737 13.5701069 1.07833063 16.7608964zM3.48632811 10.6650904C3.77569895 10.5139802 4.07432158 10.4605263 4.35392684 10.4605263 4.64586768 10.4605263 4.91724916 10.5191201 5.13466284 10.5890214 6.21916116 10.9333881 7.25791526 11.9048108 7.91272621 13.1866776 8.97460947 15.2641858 8.73046884 17.6171875 7.37921474 18.3244243 6.78916537 18.6328125 6.15696968 18.5382401 5.731394 18.4004934 4.64689568 18.0550986 3.60814158 17.0847039 2.95281674 15.8028372 1.89041937 13.7243009 2.135074 11.3723273 3.48632811 10.6650904zM22.1237664 7.01685853C21.7434211 10.7473273 23.6723889 13.9021381 26.5152138 14.1992187 26.6560444 14.2146381 26.7963609 14.2218339 26.9366776 14.2218339 27.9224917 14.2218339 28.8841488 13.8599918 29.7409539 13.1640625 31.1328124 12.032278 32.0538651 10.1757813 32.2681948 8.07051811 32.6485402 4.34004937 30.7195723 1.18523853 27.8762335.887129895 26.7454768.771998316 25.6301397 1.12870063 24.6515213 1.92331411 23.2591488 3.05509874 22.3380962 4.91159537 22.1237664 7.01685853zM27.6577919 2.98108547C29.2737458 3.15069895 30.4260896 5.38342926 30.1742393 7.85670221 30.0179893 9.38733547 29.3595805 10.7606907 28.4123149 11.5306332 28.0396793 11.8338815 27.4408922 12.1731085 26.7336554 12.1062911 25.1182154 11.9366776 23.9658717 9.70394726 24.217722 7.23067432 24.373972 5.70004105 25.0323807 4.32668579 25.9796463 3.55674337 26.352796 3.25246716 26.9556949 2.91837989 27.6577919 2.98108547zM33.750514 20.1891447C34.3200041 20.4872533 34.9408923 20.6373355 35.5890214 20.6373355 36.0526316 20.6373355 36.5296053 20.5602384 37.0122327 20.4070723 38.644634 19.8869243 40.1079359 18.5587993 41.0274465 16.7608963 42.6583059 13.5701068 42.0291941 10.0729852 39.5944696 8.80037 38.6173931 8.28947358 37.4892064 8.21443253 36.3317228 8.58244242 34.6993216 9.10259042 33.2365337 10.4307155 32.3175369 12.2286184 30.6871916 15.4183799 31.3163035 18.9155017 33.750514 20.1891447zM34.1925371 13.1866777C34.8473479 11.9048109 35.886102 10.9333882 36.9706004 10.5890215 37.1880141 10.5191202 37.4593957 10.4605264 37.7513364 10.4605264 38.0309417 10.4605264 38.3295642 10.5139803 38.6189352 10.6650905 39.9701893 11.3723274 40.2148439 13.7243011 39.1529606 15.8028373 38.4971218 17.084704 37.4583677 18.0550987 36.3738694 18.4004935 35.9472658 18.5382402 35.315584 18.6328125 34.7265626 18.3244244 33.3747944 17.6171875 33.1306538 15.2641859 34.1925371 13.1866777z"/>
</svg>
