<svg xmlns="http://www.w3.org/2000/svg" width="58" height="40" viewBox="0 0 58 40">
  <path fill="#F4F4F4" d="M56.5555556,13.8888889 C56.4444444,13.7777778 52.7777778,12.3333333 47.8888889,12.3333333 C43.7777778,12.3333333 40,13.4444444 36.8888889,15.5555556 C34.6666667,17 33.1111111,19.3333333 32.5555556,21.8888889 C32.1111111,24.3333333 32.4444444,26.6666667 33.6666667,28.7777778 C32.6666667,30 31.6666667,31.2222222 31,32.7777778 C30.5555556,31.3333333 29.8888889,29.5555556 28.8888889,27.8888889 C33,22.6666667 32.8888889,15.1111111 28.3333333,10 C20.6666667,1.44444444 9.33333333,0.444444444 4.88888889,0.444444444 C3.22222222,0.444444444 2.22222222,0.555555556 2.22222222,0.555555556 C1.77777778,0.555555556 1.33333333,0.888888889 1.22222222,1.33333333 C1.11111111,2 -2.66666667,17.1111111 7.44444444,28.4444444 C10.1111111,31.4444444 13.8888889,33.1111111 17.8888889,33.1111111 C21.3333333,33.1111111 24.5555556,31.8888889 27.1111111,29.5555556 C27.2222222,29.4444444 27.2222222,29.4444444 27.3333333,29.3333333 C29.7777778,33.7777778 29.4444444,37.6666667 29.4444444,38 C29.4444444,38 29.4444444,38 29.4444444,38 C29.3333333,38.5555556 29.8888889,39.1111111 30.4444444,39.2222222 C30.4444444,39.2222222 30.5555556,39.2222222 30.5555556,39.2222222 C31.1111111,39.2222222 31.5555556,38.7777778 31.6666667,38.2222222 C31.6666667,38.2222222 31.6666667,38.2222222 31.6666667,38.2222222 C32,35.1111111 33.3333333,32.5555556 35,30.5555556 C37.4444444,33.4444444 40,34.1111111 42,34.1111111 C44.7777778,34.1111111 47.1111111,32.7777778 48,32.2222222 C56.7777778,26.4444444 57.2222222,15.3333333 57.2222222,14.7777778 C57.3333333,14.4444444 57,14.1111111 56.5555556,13.8888889 Z"/>
</svg>
