<svg xmlns="http://www.w3.org/2000/svg" width="53" height="40" viewBox="0 0 53 40">
  <path d="M26.3013699,0.198454795 C17.0765238,0.198454795 7.88640658,3.92562192 0.873287671,10.9176329 C0.585851381,11.1910001 0.468558007,11.5983441 0.566602429,11.9827092 C0.664646851,12.3670743 0.962725238,12.6684647 1.34598356,12.7707501 C1.72924188,12.8730356 2.13785705,12.7602503 2.41438356,12.4758521 C9.02601425,5.88412603 17.6688044,2.39019178 26.3013699,2.39023562 C34.9339501,2.39027945 43.5767288,5.88412603 50.1883562,12.4758521 C50.4648827,12.7602503 50.8734978,12.8730356 51.2567562,12.7707501 C51.6400145,12.6684647 51.9380929,12.3670743 52.0361373,11.9827092 C52.1341817,11.5983441 52.0168883,11.1910001 51.7294521,10.9176329 C44.7163299,3.92562192 35.5262011,0.198454795 26.3013699,0.198454795 Z M26.3013699,10.0614685 C19.6723896,10.0614685 13.0483441,12.5993425 7.99657534,17.4929753 C7.71516751,17.7682656 7.60200157,18.1727736 7.69970602,18.5541251 C7.79741047,18.9354765 8.09114168,19.2357351 8.47025396,19.3417963 C8.84936624,19.4478575 9.25626341,19.3436081 9.53767123,19.0683178 C14.1746126,14.576526 20.2317463,12.2532493 26.3013699,12.2532493 C32.3709934,12.2532493 38.4281271,14.576526 43.0650685,19.0683178 C43.5000873,19.4938797 44.1977258,19.4862133 44.6232876,19.0511945 C45.0488495,18.6161757 45.0411832,17.9185372 44.6061644,17.4929753 C39.5543956,12.5993425 32.9303501,10.0614685 26.3013699,10.0614685 Z M26.3013699,19.9244821 C22.1653107,19.9241534 18.2557211,21.4898521 15.119863,24.616263 C14.8324267,24.8896302 14.7151333,25.2969742 14.8131778,25.6813394 C14.9112222,26.0657045 15.2093006,26.3670948 15.5925589,26.4693803 C15.9758172,26.5716657 16.3844324,26.4588804 16.6609589,26.1744822 C19.4191337,23.4246192 22.7123507,22.1159342 26.3013699,22.116263 C29.8906296,22.1165918 33.1836636,23.4247288 35.9417808,26.1744822 C36.2183073,26.4588804 36.6269225,26.5716657 37.0101808,26.4693803 C37.3934391,26.3670948 37.6915175,26.0657045 37.789562,25.6813394 C37.8876064,25.2969742 37.770313,24.8896302 37.4828767,24.616263 C34.3469611,21.4897973 30.4371885,19.924811 26.3013699,19.9244821 Z M26.3013699,29.7874959 C23.5907556,29.7874959 21.369863,32.0083726 21.369863,34.7190027 C21.369863,37.4296329 23.5907556,39.6505096 26.3013699,39.6505096 C29.0119841,39.6505096 31.2328767,37.4296329 31.2328767,34.7190027 C31.2328767,32.0083726 29.0119841,29.7874959 26.3013699,29.7874959 Z M26.3013699,31.9792767 C27.8274603,31.9792767 29.0410959,33.1929205 29.0410959,34.7190027 C29.0410959,36.2450849 27.8274603,37.4587288 26.3013699,37.4587288 C24.7752795,37.4587288 23.5616438,36.2450849 23.5616438,34.7190027 C23.5616438,33.1929205 24.7752795,31.9792767 26.3013699,31.9792767 Z"/>
</svg>
